<svg width="24" height="24" viewBox="0 0 24 24" fill="none" xmlns="http://www.w3.org/2000/svg">
<path d="M9.43879 21.9997C6.46219 21.9825 4 15.9063 4 12.8118C4 7.75695 7.79199 6.65031 9.2534 6.65031C9.91199 6.65031 10.6152 6.90895 11.2355 7.13781C11.6693 7.29746 12.1179 7.46227 12.3673 7.46227C12.5167 7.46227 12.8686 7.32207 13.1793 7.19906C13.8419 6.93527 14.6664 6.60742 15.6266 6.60742C15.6283 6.60742 15.6306 6.60742 15.6323 6.60742C16.3493 6.60742 18.5231 6.76477 19.83 8.72742L20.1361 9.18746L19.6955 9.51992C19.0661 9.99484 17.9177 10.8612 17.9177 12.5772C17.9177 14.6097 19.2183 15.3913 19.8432 15.7673C20.119 15.9332 20.4045 16.1043 20.4045 16.4785C20.4045 16.7229 18.4544 21.9694 15.6226 21.9694C14.9296 21.9694 14.4398 21.7611 14.0078 21.5774C13.5707 21.3914 13.1936 21.2312 12.5704 21.2312C12.2546 21.2312 11.8552 21.3806 11.4323 21.5391C10.8545 21.7548 10.2004 21.9997 9.45824 21.9997H9.43879Z" fill="#141010"/>
<path d="M15.9266 2C16.0003 4.65922 14.0986 6.50406 12.199 6.38836C11.886 4.26621 14.0983 2 15.9266 2Z" fill="#141010"/>
</svg>
