<svg width="24" height="24" viewBox="0 0 24 24" fill="none" xmlns="http://www.w3.org/2000/svg">
<path d="M9.98067 21.9999H6.67411C6.50985 21.9999 6.35309 21.931 6.24208 21.8099C6.1311 21.6887 6.07606 21.5266 6.09036 21.363L7.50177 5.23113C7.52829 4.92848 7.78169 4.69629 8.08548 4.69629H15.7686C17.1626 4.69629 18.4295 5.24098 19.3358 6.23008C20.2465 7.2239 20.6806 8.5423 20.5581 9.94242C20.4376 11.3195 19.7905 12.612 18.7359 13.5818C17.6807 14.552 16.3405 15.0864 14.9621 15.0864H11.1225L10.5644 21.4651C10.5379 21.7678 10.2845 21.9999 9.98067 21.9999Z" fill="#507BE9"/>
<path d="M15.7685 4.69629H11.7891V15.0863H14.962C16.3404 15.0863 17.6807 14.5519 18.7358 13.5817C19.7904 12.612 20.4375 11.3195 20.558 9.94238C20.6805 8.54226 20.2464 7.22387 19.3357 6.23004C18.4294 5.24102 17.1625 4.69629 15.7685 4.69629Z" fill="#3266C8"/>
<path d="M6.89254 19.3037H3.58598C3.42172 19.3037 3.26496 19.2347 3.15394 19.1136C3.04297 18.9925 2.98793 18.8303 3.00223 18.6667L4.41363 2.53484C4.44015 2.23219 4.69355 2 4.99734 2H12.6804C14.0745 2 15.3414 2.54469 16.2477 3.53383C17.1584 4.52762 17.5925 5.84601 17.47 7.24609C17.3495 8.62324 16.7024 9.9157 15.6478 10.8855C14.5926 11.8557 13.2524 12.3901 11.874 12.3901H8.03433L7.47628 18.7689C7.44972 19.0715 7.19632 19.3037 6.89254 19.3037Z" fill="#7DBEFF"/>
<path d="M12.6804 2H11.7891V12.39H11.8739C13.2523 12.39 14.5926 11.8557 15.6477 10.8854C16.7023 9.91566 17.3494 8.6232 17.4699 7.24605C17.5924 5.84597 17.1583 4.52758 16.2477 3.53379C15.3413 2.54469 14.0744 2 12.6804 2Z" fill="#6496F7"/>
<path d="M8.08543 4.69633C7.78164 4.69633 7.5282 4.92852 7.50172 5.23117L6.27051 19.3037H6.89254C7.19633 19.3037 7.44976 19.0715 7.47625 18.7689L8.0343 12.3901H11.8739C13.2524 12.3901 14.5926 11.8557 15.6478 10.8855C16.7023 9.9157 17.3494 8.62324 17.47 7.24609C17.5432 6.40883 17.4173 5.6009 17.1095 4.87398C16.6823 4.75699 16.2325 4.69629 15.7685 4.69629H8.08543V4.69633Z" fill="#6496F7"/>
<path d="M15.7685 4.69629H11.7891V12.39H11.8739C13.2523 12.39 14.5926 11.8557 15.6477 10.8854C16.7023 9.91566 17.3494 8.6232 17.4699 7.24605C17.5432 6.40879 17.4172 5.60086 17.1095 4.87395C16.6823 4.75699 16.2325 4.69629 15.7685 4.69629Z" fill="#507BE9"/>
</svg>
